<?xml version="1.0" standalone="no"?>
<!DOCTYPE svg PUBLIC "-//W3C//DTD SVG 20010904//EN"
 "http://www.w3.org/TR/2001/REC-SVG-20010904/DTD/svg10.dtd">
<svg version="1.0" xmlns="http://www.w3.org/2000/svg"
 width="260.000000pt" height="260.000000pt" viewBox="0 0 260.000000 260.000000"
 preserveAspectRatio="xMidYMid meet">
<metadata>
Created by potrace 1.11, written by Peter Selinger 2001-2013
</metadata>
<g transform="translate(0.000000,260.000000) scale(0.100000,-0.100000)"
fill="#000000" stroke="none">
<path d="M480 2353 c-51 -8 -157 -46 -210 -74 -109 -58 -196 -162 -242 -290
-23 -64 -23 -66 -25 -649 -3 -656 -3 -659 67 -806 69 -143 191 -241 350 -278
99 -23 1613 -24 1727 0 228 46 388 194 437 404 23 98 23 1152 0 1255 -50 225
-203 386 -407 430 -49 11 -227 13 -867 13 -443 -1 -816 -3 -830 -5z m1649
-174 c156 -30 260 -145 291 -324 8 -51 11 -218 8 -610 l-3 -540 -24 -59 c-40
-101 -116 -166 -251 -218 -51 -19 -1610 -24 -1690 -5 -124 30 -207 104 -256
229 l-29 73 -3 550 c-3 574 0 631 40 708 47 93 143 163 263 193 65 16 1571 18
1654 3z"/>
<path d="M1109 1817 c-32 -25 -39 -56 -39 -179 0 -106 3 -128 21 -157 11 -18
19 -34 17 -35 -10 -7 -94 -71 -98 -76 -9 -10 -234 -186 -260 -203 -19 -13 -48
-17 -125 -17 -108 -1 -127 -8 -145 -54 -5 -15 -10 -78 -10 -140 0 -101 2 -117
23 -147 l23 -34 169 -3 c94 -1 180 0 192 3 41 10 53 52 53 192 0 151 -10 172
-79 182 l-41 6 186 148 c174 138 188 147 228 147 26 0 46 -5 48 -12 2 -7 4
-74 4 -148 l-1 -135 -65 -3 c-132 -5 -140 -15 -140 -194 0 -124 8 -155 44
-180 19 -13 359 -9 377 5 32 25 39 56 39 177 0 126 -11 171 -45 184 -9 3 -47
6 -85 6 -45 0 -69 4 -72 13 -2 6 -4 73 -4 147 l1 135 46 3 c46 3 48 2 233
-145 150 -118 183 -149 164 -151 -88 -10 -98 -30 -98 -192 0 -125 11 -171 45
-184 9 -3 94 -6 189 -6 172 0 173 0 196 25 22 23 25 37 28 125 5 123 -3 181
-29 209 -18 19 -30 21 -127 21 l-107 1 -170 135 c-93 75 -178 142 -189 149
-18 13 -18 15 3 48 18 30 21 49 21 156 0 122 -7 153 -39 178 -11 9 -69 12
-191 12 -122 0 -180 -3 -191 -12z"/>
</g>
</svg>
