<svg version="1" xmlns="http://www.w3.org/2000/svg" width="346.667" height="346.667" viewBox="0 0 260.000000 260.000000"><path d="M48 24.7c-5.1.8-15.7 4.6-21 7.4-10.9 5.8-19.6 16.2-24.2 29C.5 67.5.5 67.7.3 126 0 191.6 0 191.9 7 206.6c6.9 14.3 19.1 24.1 35 27.8 9.9 2.3 161.3 2.4 172.7 0 22.8-4.6 38.8-19.4 43.7-40.4 2.3-9.8 2.3-115.2 0-125.5-5-22.5-20.3-38.6-40.7-43-4.9-1.1-22.7-1.3-86.7-1.3-44.3.1-81.6.3-83 .5zm164.9 17.4c15.6 3 26 14.5 29.1 32.4.8 5.1 1.1 21.8.8 61l-.3 54-2.4 5.9c-4 10.1-11.6 16.6-25.1 21.8-5.1 1.9-161 2.4-169 .5-12.4-3-20.7-10.4-25.6-22.9l-2.9-7.3-.3-55c-.3-57.4 0-63.1 4-70.8 4.7-9.3 14.3-16.3 26.3-19.3 6.5-1.6 157.1-1.8 165.4-.3z"/><path d="M110.9 78.3c-3.2 2.5-3.9 5.6-3.9 17.9 0 10.6.3 12.8 2.1 15.7 1.1 1.8 1.9 3.4 1.7 3.5-1 .7-9.4 7.1-9.8 7.6-.9 1-23.4 18.6-26 20.3-1.9 1.3-4.8 1.7-12.5 1.7-10.8.1-12.7.8-14.5 5.4-.5 1.5-1 7.8-1 14 0 10.1.2 11.7 2.3 14.7l2.3 3.4 16.9.3c9.4.1 18 0 19.2-.3 4.1-1 5.3-5.2 5.3-19.2 0-15.1-1-17.2-7.9-18.2l-4.1-.6 18.6-14.8c17.4-13.8 18.8-14.7 22.8-14.7 2.6 0 4.6.5 4.8 1.2.2.7.4 7.4.4 14.8l-.1 13.5-6.5.3c-13.2.5-14 1.5-14 19.4 0 12.4.8 15.5 4.4 18 1.9 1.3 35.9.9 37.7-.5 3.2-2.5 3.9-5.6 3.9-17.7 0-12.6-1.1-17.1-4.5-18.4-.9-.3-4.7-.6-8.5-.6-4.5 0-6.9-.4-7.2-1.3-.2-.6-.4-7.3-.4-14.7l.1-13.5 4.6-.3c4.6-.3 4.8-.2 23.3 14.5 15 11.8 18.3 14.9 16.4 15.1-8.8 1-9.8 3-9.8 19.2 0 12.5 1.1 17.1 4.5 18.4.9.3 9.4.6 18.9.6 17.2 0 17.3 0 19.6-2.5 2.2-2.3 2.5-3.7 2.8-12.5.5-12.3-.3-18.1-2.9-20.9-1.8-1.9-3-2.1-12.7-2.1l-10.7-.1-17-13.5c-9.3-7.5-17.8-14.2-18.9-14.9-1.8-1.3-1.8-1.5.3-4.8 1.8-3 2.1-4.9 2.1-15.6 0-12.2-.7-15.3-3.9-17.8-1.1-.9-6.9-1.2-19.1-1.2-12.2 0-18 .3-19.1 1.2z"/></svg>